<svg width="300" height="280" viewBox="0 0 300 280" fill="none" xmlns="http://www.w3.org/2000/svg">
<rect x="2" y="2" width="296" height="276" rx="31" fill="#FCFFFC"/>
<rect x="2" y="2" width="296" height="276" rx="31" stroke="#E6E6E6" stroke-width="4"/>
<path d="M119.289 34.132C117.936 34.132 116.957 33.659 116.308 32.966L117.023 31.976C117.529 32.515 118.321 32.988 119.344 32.988C120.4 32.988 120.818 32.471 120.818 31.987C120.818 30.447 116.539 31.404 116.539 28.698C116.539 27.488 117.606 26.553 119.212 26.553C120.356 26.553 121.28 26.916 121.962 27.576L121.225 28.533C120.653 27.961 119.872 27.697 119.102 27.697C118.343 27.697 117.859 28.06 117.859 28.61C117.859 29.974 122.127 29.127 122.127 31.866C122.127 33.087 121.269 34.132 119.289 34.132ZM127.679 34H126.524V33.428C126.128 33.879 125.512 34.132 124.808 34.132C123.939 34.132 122.96 33.549 122.96 32.372C122.96 31.151 123.939 30.645 124.808 30.645C125.523 30.645 126.139 30.876 126.524 31.327V30.535C126.524 29.919 126.018 29.545 125.281 29.545C124.687 29.545 124.17 29.765 123.708 30.216L123.235 29.413C123.851 28.83 124.621 28.555 125.468 28.555C126.645 28.555 127.679 29.05 127.679 30.48V34ZM125.259 33.34C125.765 33.34 126.26 33.153 126.524 32.79V31.987C126.26 31.624 125.765 31.437 125.259 31.437C124.61 31.437 124.126 31.811 124.126 32.394C124.126 32.966 124.61 33.34 125.259 33.34ZM131.817 34H130.574L128.407 28.687H129.639L131.19 32.669L132.741 28.687H133.984L131.817 34ZM137.162 34.132C135.567 34.132 134.379 33.021 134.379 31.338C134.379 29.798 135.501 28.555 137.074 28.555C138.669 28.555 139.692 29.776 139.692 31.448V31.723H135.589C135.677 32.526 136.282 33.186 137.283 33.186C137.8 33.186 138.416 32.977 138.79 32.603L139.318 33.362C138.79 33.868 138.009 34.132 137.162 34.132ZM138.57 30.909C138.548 30.282 138.119 29.501 137.074 29.501C136.084 29.501 135.633 30.26 135.578 30.909H138.57ZM145.252 34.132C144.361 34.132 143.888 33.648 143.888 32.768V29.699H143.008V28.687H143.888V27.235H145.043V28.687H146.121V29.699H145.043V32.482C145.043 32.845 145.219 33.109 145.549 33.109C145.769 33.109 145.978 33.021 146.066 32.922L146.341 33.791C146.132 33.989 145.791 34.132 145.252 34.132ZM151.922 34H150.767V30.656C150.767 29.831 150.338 29.578 149.689 29.578C149.106 29.578 148.6 29.93 148.325 30.293V34H147.17V26.663H148.325V29.413C148.677 28.995 149.37 28.555 150.206 28.555C151.35 28.555 151.922 29.149 151.922 30.238V34ZM155.875 34.132C154.28 34.132 153.092 33.021 153.092 31.338C153.092 29.798 154.214 28.555 155.787 28.555C157.382 28.555 158.405 29.776 158.405 31.448V31.723H154.302C154.39 32.526 154.995 33.186 155.996 33.186C156.513 33.186 157.129 32.977 157.503 32.603L158.031 33.362C157.503 33.868 156.722 34.132 155.875 34.132ZM157.283 30.909C157.261 30.282 156.832 29.501 155.787 29.501C154.797 29.501 154.346 30.26 154.291 30.909H157.283ZM167.265 34H166.11V33.274C165.703 33.802 165.087 34.132 164.405 34.132C163.041 34.132 162.04 33.098 162.04 31.349C162.04 29.633 163.03 28.555 164.405 28.555C165.065 28.555 165.681 28.863 166.11 29.424V26.663H167.265V34ZM164.735 33.109C165.285 33.109 165.846 32.801 166.11 32.405V30.293C165.846 29.897 165.285 29.578 164.735 29.578C163.822 29.578 163.239 30.315 163.239 31.349C163.239 32.372 163.822 33.109 164.735 33.109ZM173.162 34H172.007V33.428C171.611 33.879 170.995 34.132 170.291 34.132C169.422 34.132 168.443 33.549 168.443 32.372C168.443 31.151 169.422 30.645 170.291 30.645C171.006 30.645 171.622 30.876 172.007 31.327V30.535C172.007 29.919 171.501 29.545 170.764 29.545C170.17 29.545 169.653 29.765 169.191 30.216L168.718 29.413C169.334 28.83 170.104 28.555 170.951 28.555C172.128 28.555 173.162 29.05 173.162 30.48V34ZM170.742 33.34C171.248 33.34 171.743 33.153 172.007 32.79V31.987C171.743 31.624 171.248 31.437 170.742 31.437C170.093 31.437 169.609 31.811 169.609 32.394C169.609 32.966 170.093 33.34 170.742 33.34ZM176.254 34.132C175.363 34.132 174.89 33.648 174.89 32.768V29.699H174.01V28.687H174.89V27.235H176.045V28.687H177.123V29.699H176.045V32.482C176.045 32.845 176.221 33.109 176.551 33.109C176.771 33.109 176.98 33.021 177.068 32.922L177.343 33.791C177.134 33.989 176.793 34.132 176.254 34.132ZM180.625 34.132C179.03 34.132 177.842 33.021 177.842 31.338C177.842 29.798 178.964 28.555 180.537 28.555C182.132 28.555 183.155 29.776 183.155 31.448V31.723H179.052C179.14 32.526 179.745 33.186 180.746 33.186C181.263 33.186 181.879 32.977 182.253 32.603L182.781 33.362C182.253 33.868 181.472 34.132 180.625 34.132ZM182.033 30.909C182.011 30.282 181.582 29.501 180.537 29.501C179.547 29.501 179.096 30.26 179.041 30.909H182.033Z" fill="#333333"/>
<line x1="24" y1="53.5" x2="276" y2="53.5" stroke="#E6E6E6"/>
<path d="M127.788 80H126.226V72.663H131.418V74.038H127.788V75.589H131.341V76.964H127.788V80ZM134.974 80.132C133.357 80.132 132.136 79.043 132.136 77.338C132.136 75.798 133.269 74.555 134.886 74.555C136.47 74.555 137.548 75.743 137.548 77.481V77.789H133.599C133.687 78.46 134.226 79.021 135.128 79.021C135.579 79.021 136.206 78.823 136.547 78.493L137.163 79.395C136.635 79.879 135.799 80.132 134.974 80.132ZM136.195 76.843C136.162 76.337 135.81 75.666 134.886 75.666C134.017 75.666 133.643 76.315 133.577 76.843H136.195ZM139.954 78.295C140.185 78.636 140.702 78.889 141.153 78.889C141.967 78.889 142.506 78.273 142.506 77.349C142.506 76.425 141.967 75.798 141.153 75.798C140.702 75.798 140.185 76.062 139.954 76.414V78.295ZM139.954 80H138.557V72.663H139.954V75.369C140.372 74.83 140.966 74.555 141.593 74.555C142.946 74.555 143.947 75.611 143.947 77.349C143.947 79.12 142.935 80.132 141.593 80.132C140.955 80.132 140.372 79.846 139.954 79.318V80ZM153.163 80H147.641V78.779C150.644 76.557 151.524 75.798 151.524 74.896C151.524 74.258 150.941 73.939 150.336 73.939C149.5 73.939 148.862 74.269 148.367 74.786L147.476 73.752C148.191 72.927 149.28 72.553 150.303 72.553C151.865 72.553 153.108 73.433 153.108 74.896C153.108 76.15 152.074 77.239 150.171 78.625H153.163V80ZM157.13 80.132C155.029 80.132 154.094 78.229 154.094 76.337C154.094 74.445 155.029 72.553 157.13 72.553C159.22 72.553 160.166 74.445 160.166 76.337C160.166 78.229 159.22 80.132 157.13 80.132ZM157.13 78.746C158.175 78.746 158.571 77.69 158.571 76.337C158.571 74.984 158.175 73.939 157.13 73.939C156.074 73.939 155.678 74.984 155.678 76.337C155.678 77.69 156.074 78.746 157.13 78.746ZM166.58 80H161.058V78.779C164.061 76.557 164.941 75.798 164.941 74.896C164.941 74.258 164.358 73.939 163.753 73.939C162.917 73.939 162.279 74.269 161.784 74.786L160.893 73.752C161.608 72.927 162.697 72.553 163.72 72.553C165.282 72.553 166.525 73.433 166.525 74.896C166.525 76.15 165.491 77.239 163.588 78.625H166.58V80ZM170.503 80.132C169.227 80.132 168.303 79.714 167.676 79.032L168.545 77.943C169.04 78.46 169.722 78.746 170.492 78.746C171.361 78.746 171.856 78.251 171.856 77.657C171.856 77.008 171.372 76.568 170.536 76.568C169.931 76.568 169.436 76.744 168.996 77.162L167.907 76.876V72.663H172.945V74.038H169.469V75.831C169.821 75.479 170.415 75.215 171.086 75.215C172.329 75.215 173.44 76.106 173.44 77.591C173.44 79.153 172.274 80.132 170.503 80.132Z" fill="#333333"/>
<rect x="48" y="147" width="206" height="22" fill="#5AFF9F"/>
<circle cx="48" cy="158" r="11" fill="#12100E"/>
<path d="M45.404 110H44.117V104.555L41.862 110H41.312L39.068 104.555V110H37.781V102.663H39.596L41.587 107.492L43.589 102.663H45.404V110ZM49.3306 110.132C47.6476 110.132 46.6026 108.867 46.6026 107.338C46.6026 105.82 47.6476 104.555 49.3306 104.555C51.0356 104.555 52.0696 105.82 52.0696 107.338C52.0696 108.867 51.0356 110.132 49.3306 110.132ZM49.3306 109.109C50.3206 109.109 50.8706 108.284 50.8706 107.338C50.8706 106.403 50.3206 105.578 49.3306 105.578C48.3516 105.578 47.8016 106.403 47.8016 107.338C47.8016 108.284 48.3516 109.109 49.3306 109.109ZM57.9792 110H56.8242V106.678C56.8242 105.853 56.4062 105.578 55.7572 105.578C55.1632 105.578 54.6572 105.93 54.3932 106.293V110H53.2382V104.687H54.3932V105.413C54.7452 104.995 55.4272 104.555 56.2632 104.555C57.4072 104.555 57.9792 105.171 57.9792 106.26V110Z" fill="#333333"/>
<path d="M46.863 136H41.55V134.988C44.399 132.832 45.51 131.875 45.51 130.819C45.51 130.049 44.85 129.697 44.179 129.697C43.321 129.697 42.661 130.049 42.199 130.577L41.451 129.73C42.1 128.949 43.134 128.553 44.157 128.553C45.576 128.553 46.819 129.356 46.819 130.819C46.819 132.172 45.576 133.382 43.607 134.867H46.863V136ZM51.018 136.132C48.862 136.132 47.993 134.383 47.993 132.348C47.993 130.225 49.104 128.553 51.227 128.553C52.14 128.553 52.844 128.883 53.339 129.367L52.734 130.346C52.349 129.939 51.931 129.697 51.227 129.697C50.006 129.697 49.291 130.83 49.291 132.117C49.291 132.194 49.291 132.26 49.302 132.326C49.632 131.831 50.402 131.303 51.271 131.303C52.591 131.303 53.724 132.106 53.724 133.668C53.724 135.032 52.657 136.132 51.018 136.132ZM50.952 134.988C51.92 134.988 52.426 134.306 52.426 133.712C52.426 132.81 51.722 132.403 50.919 132.403C50.292 132.403 49.687 132.744 49.313 133.272C49.39 134.064 49.819 134.988 50.952 134.988Z" fill="#E6E6E6"/>
<path d="M44.388 162.132C42.331 162.132 41.451 160.185 41.451 158.337C41.451 156.489 42.331 154.553 44.388 154.553C46.445 154.553 47.325 156.489 47.325 158.337C47.325 160.185 46.445 162.132 44.388 162.132ZM44.388 160.988C45.587 160.988 46.016 159.734 46.016 158.337C46.016 156.94 45.587 155.697 44.388 155.697C43.189 155.697 42.76 156.94 42.76 158.337C42.76 159.734 43.189 160.988 44.388 160.988ZM53.6413 162H48.3283V160.988C51.1773 158.832 52.2883 157.875 52.2883 156.819C52.2883 156.049 51.6283 155.697 50.9573 155.697C50.0993 155.697 49.4393 156.049 48.9773 156.577L48.2293 155.73C48.8783 154.949 49.9123 154.553 50.9353 154.553C52.3543 154.553 53.5973 155.356 53.5973 156.819C53.5973 158.172 52.3543 159.382 50.3853 160.867H53.6413V162Z" fill="#FCFFFC"/>
<path d="M44.388 188.132C42.331 188.132 41.451 186.185 41.451 184.337C41.451 182.489 42.331 180.553 44.388 180.553C46.445 180.553 47.325 182.489 47.325 184.337C47.325 186.185 46.445 188.132 44.388 188.132ZM44.388 186.988C45.587 186.988 46.016 185.734 46.016 184.337C46.016 182.94 45.587 181.697 44.388 181.697C43.189 181.697 42.76 182.94 42.76 184.337C42.76 185.734 43.189 186.988 44.388 186.988ZM50.6933 188.121C49.7913 188.121 49.0873 187.802 48.5923 187.307L49.1863 186.339C49.5713 186.735 50.0003 186.977 50.6933 186.977C52.0243 186.977 52.6293 185.767 52.6293 184.568C52.6293 184.491 52.6293 184.425 52.6293 184.348C52.2883 184.843 51.5183 185.382 50.6603 185.382C49.3403 185.382 48.1963 184.568 48.1963 183.006C48.1963 181.653 49.2633 180.542 50.9023 180.542C53.0583 180.542 53.9273 182.291 53.9273 184.337C53.9273 186.449 52.8163 188.121 50.6933 188.121ZM51.0013 184.271C51.6283 184.271 52.2443 183.941 52.6073 183.413C52.5413 182.621 52.1013 181.686 50.9683 181.686C50.0113 181.686 49.5053 182.379 49.5053 182.962C49.5053 183.864 50.2093 184.271 51.0013 184.271Z" fill="#333333"/>
<path d="M45.899 214H44.612V208.335L43.413 209.578L42.665 208.797L44.777 206.663H45.899V214ZM50.1547 214.132C47.9987 214.132 47.1297 212.383 47.1297 210.348C47.1297 208.225 48.2407 206.553 50.3637 206.553C51.2767 206.553 51.9807 206.883 52.4757 207.367L51.8707 208.346C51.4857 207.939 51.0677 207.697 50.3637 207.697C49.1427 207.697 48.4277 208.83 48.4277 210.117C48.4277 210.194 48.4277 210.26 48.4387 210.326C48.7687 209.831 49.5387 209.303 50.4077 209.303C51.7277 209.303 52.8607 210.106 52.8607 211.668C52.8607 213.032 51.7937 214.132 50.1547 214.132ZM50.0887 212.988C51.0567 212.988 51.5627 212.306 51.5627 211.712C51.5627 210.81 50.8587 210.403 50.0557 210.403C49.4287 210.403 48.8237 210.744 48.4497 211.272C48.5267 212.064 48.9557 212.988 50.0887 212.988Z" fill="#333333"/>
<path d="M47.363 240H42.05V238.988C44.899 236.832 46.01 235.875 46.01 234.819C46.01 234.049 45.35 233.697 44.679 233.697C43.821 233.697 43.161 234.049 42.699 234.577L41.951 233.73C42.6 232.949 43.634 232.553 44.657 232.553C46.076 232.553 47.319 233.356 47.319 234.819C47.319 236.172 46.076 237.382 44.107 238.867H47.363V240ZM51.078 240.132C49.769 240.132 48.801 239.604 48.306 238.944L48.999 238.097C49.472 238.647 50.253 238.988 51.034 238.988C52.002 238.988 52.563 238.548 52.563 237.866C52.563 237.14 51.98 236.832 50.935 236.832C50.627 236.832 50.198 236.832 50.088 236.843V235.688C50.22 235.699 50.649 235.699 50.935 235.699C51.793 235.699 52.442 235.402 52.442 234.731C52.442 234.049 51.782 233.697 50.957 233.697C50.209 233.697 49.593 233.983 49.065 234.511L48.405 233.708C48.966 233.048 49.857 232.553 51.078 232.553C52.662 232.553 53.729 233.301 53.729 234.533C53.729 235.512 52.893 236.084 52.134 236.216C52.849 236.282 53.839 236.865 53.839 237.998C53.839 239.241 52.772 240.132 51.078 240.132Z" fill="#333333"/>
<path d="M78.817 110H77.53V103.796H75.308V102.663H81.039V103.796H78.817V110ZM86.0105 110H84.8555V109.296C84.4705 109.725 83.8105 110.132 82.9745 110.132C81.8305 110.132 81.2695 109.538 81.2695 108.449V104.687H82.4245V108.031C82.4245 108.856 82.8425 109.109 83.4915 109.109C84.0745 109.109 84.5805 108.779 84.8555 108.416V104.687H86.0105V110ZM89.9637 110.132C88.3687 110.132 87.1807 109.021 87.1807 107.338C87.1807 105.798 88.3027 104.555 89.8757 104.555C91.4707 104.555 92.4937 105.776 92.4937 107.448V107.723H88.3907C88.4787 108.526 89.0837 109.186 90.0847 109.186C90.6017 109.186 91.2177 108.977 91.5917 108.603L92.1197 109.362C91.5917 109.868 90.8107 110.132 89.9637 110.132ZM91.3717 106.909C91.3497 106.282 90.9207 105.501 89.8757 105.501C88.8857 105.501 88.4347 106.26 88.3797 106.909H91.3717Z" fill="#333333"/>
<path d="M83.363 136H78.05V134.988C80.899 132.832 82.01 131.875 82.01 130.819C82.01 130.049 81.35 129.697 80.679 129.697C79.821 129.697 79.161 130.049 78.699 130.577L77.951 129.73C78.6 128.949 79.634 128.553 80.657 128.553C82.076 128.553 83.319 129.356 83.319 130.819C83.319 132.172 82.076 133.382 80.107 134.867H83.363V136ZM86.781 136H85.373L88.145 129.796H84.339V128.663H89.63V129.554L86.781 136Z" fill="#E6E6E6"/>
<path d="M80.388 162.132C78.331 162.132 77.451 160.185 77.451 158.337C77.451 156.489 78.331 154.553 80.388 154.553C82.445 154.553 83.325 156.489 83.325 158.337C83.325 160.185 82.445 162.132 80.388 162.132ZM80.388 160.988C81.587 160.988 82.016 159.734 82.016 158.337C82.016 156.94 81.587 155.697 80.388 155.697C79.189 155.697 78.76 156.94 78.76 158.337C78.76 159.734 79.189 160.988 80.388 160.988ZM86.8143 162.132C85.5053 162.132 84.5373 161.604 84.0423 160.944L84.7353 160.097C85.2083 160.647 85.9893 160.988 86.7703 160.988C87.7383 160.988 88.2993 160.548 88.2993 159.866C88.2993 159.14 87.7163 158.832 86.6713 158.832C86.3633 158.832 85.9343 158.832 85.8243 158.843V157.688C85.9563 157.699 86.3853 157.699 86.6713 157.699C87.5293 157.699 88.1783 157.402 88.1783 156.731C88.1783 156.049 87.5183 155.697 86.6933 155.697C85.9453 155.697 85.3293 155.983 84.8013 156.511L84.1413 155.708C84.7023 155.048 85.5933 154.553 86.8143 154.553C88.3983 154.553 89.4653 155.301 89.4653 156.533C89.4653 157.512 88.6293 158.084 87.8703 158.216C88.5853 158.282 89.5753 158.865 89.5753 159.998C89.5753 161.241 88.5083 162.132 86.8143 162.132Z" fill="#333333"/>
<path d="M81.899 188H80.612V182.335L79.413 183.578L78.665 182.797L80.777 180.663H81.899V188ZM86.0667 188.132C84.0097 188.132 83.1297 186.185 83.1297 184.337C83.1297 182.489 84.0097 180.553 86.0667 180.553C88.1237 180.553 89.0037 182.489 89.0037 184.337C89.0037 186.185 88.1237 188.132 86.0667 188.132ZM86.0667 186.988C87.2657 186.988 87.6947 185.734 87.6947 184.337C87.6947 182.94 87.2657 181.697 86.0667 181.697C84.8677 181.697 84.4387 182.94 84.4387 184.337C84.4387 185.734 84.8677 186.988 86.0667 186.988Z" fill="#333333"/>
<path d="M81.899 214H80.612V208.335L79.413 209.578L78.665 208.797L80.777 206.663H81.899V214ZM85.4177 214H84.0097L86.7817 207.796H82.9757V206.663H88.2667V207.554L85.4177 214Z" fill="#333333"/>
<path d="M83.363 240H78.05V238.988C80.899 236.832 82.01 235.875 82.01 234.819C82.01 234.049 81.35 233.697 80.679 233.697C79.821 233.697 79.161 234.049 78.699 234.577L77.951 233.73C78.6 232.949 79.634 232.553 80.657 232.553C82.076 232.553 83.319 233.356 83.319 234.819C83.319 236.172 82.076 237.382 80.107 238.867H83.363V240ZM89.135 240H87.848V238.339H84.35V237.305L87.364 232.663H89.135V237.206H90.114V238.339H89.135V240ZM87.848 237.206V233.818L85.615 237.206H87.848Z" fill="#333333"/>
<path d="M116.766 110H115.391L113.961 104.588L112.542 110H111.167L109.066 102.663H110.507L111.937 108.317L113.455 102.663H114.478L115.996 108.317L117.415 102.663H118.856L116.766 110ZM121.697 110.132C120.102 110.132 118.914 109.021 118.914 107.338C118.914 105.798 120.036 104.555 121.609 104.555C123.204 104.555 124.227 105.776 124.227 107.448V107.723H120.124C120.212 108.526 120.817 109.186 121.818 109.186C122.335 109.186 122.951 108.977 123.325 108.603L123.853 109.362C123.325 109.868 122.544 110.132 121.697 110.132ZM123.105 106.909C123.083 106.282 122.654 105.501 121.609 105.501C120.619 105.501 120.168 106.26 120.113 106.909H123.105ZM130.262 110H129.107V109.274C128.7 109.802 128.084 110.132 127.402 110.132C126.038 110.132 125.037 109.098 125.037 107.349C125.037 105.633 126.027 104.555 127.402 104.555C128.062 104.555 128.678 104.863 129.107 105.424V102.663H130.262V110ZM127.732 109.109C128.282 109.109 128.843 108.801 129.107 108.405V106.293C128.843 105.897 128.282 105.578 127.732 105.578C126.819 105.578 126.236 106.315 126.236 107.349C126.236 108.372 126.819 109.109 127.732 109.109Z" fill="#333333"/>
<path d="M119.363 136H114.05V134.988C116.899 132.832 118.01 131.875 118.01 130.819C118.01 130.049 117.35 129.697 116.679 129.697C115.821 129.697 115.161 130.049 114.699 130.577L113.951 129.73C114.6 128.949 115.634 128.553 116.657 128.553C118.076 128.553 119.319 129.356 119.319 130.819C119.319 132.172 118.076 133.382 116.107 134.867H119.363V136ZM123.32 136.132C121.813 136.132 120.504 135.439 120.504 134.119C120.504 133.184 121.263 132.513 122.154 132.216C121.329 131.952 120.625 131.413 120.625 130.478C120.625 129.125 122.011 128.553 123.32 128.553C124.607 128.553 126.015 129.125 126.015 130.478C126.015 131.413 125.3 131.952 124.475 132.216C125.366 132.513 126.125 133.184 126.125 134.119C126.125 135.428 124.816 136.132 123.32 136.132ZM123.32 131.71C123.771 131.633 124.706 131.369 124.706 130.676C124.706 130.06 124.101 129.697 123.32 129.697C122.517 129.697 121.923 130.06 121.923 130.676C121.923 131.369 122.869 131.633 123.32 131.71ZM123.32 134.988C124.134 134.988 124.827 134.592 124.827 133.954C124.827 133.195 123.771 132.854 123.32 132.799C122.858 132.854 121.802 133.195 121.802 133.954C121.802 134.592 122.484 134.988 123.32 134.988Z" fill="#E6E6E6"/>
<path d="M116.888 162.132C114.831 162.132 113.951 160.185 113.951 158.337C113.951 156.489 114.831 154.553 116.888 154.553C118.945 154.553 119.825 156.489 119.825 158.337C119.825 160.185 118.945 162.132 116.888 162.132ZM116.888 160.988C118.087 160.988 118.516 159.734 118.516 158.337C118.516 156.94 118.087 155.697 116.888 155.697C115.689 155.697 115.26 156.94 115.26 158.337C115.26 159.734 115.689 160.988 116.888 160.988ZM125.371 162H124.084V160.339H120.586V159.305L123.6 154.663H125.371V159.206H126.35V160.339H125.371V162ZM124.084 159.206V155.818L121.851 159.206H124.084Z" fill="#333333"/>
<path d="M119.399 188H118.112V182.335L116.913 183.578L116.165 182.797L118.277 180.663H119.399V188ZM123.578 188H122.291V182.335L121.092 183.578L120.344 182.797L122.456 180.663H123.578V188Z" fill="#333333"/>
<path d="M118.399 214H117.112V208.335L115.913 209.578L115.165 208.797L117.277 206.663H118.399V214ZM122.457 214.132C120.95 214.132 119.641 213.439 119.641 212.119C119.641 211.184 120.4 210.513 121.291 210.216C120.466 209.952 119.762 209.413 119.762 208.478C119.762 207.125 121.148 206.553 122.457 206.553C123.744 206.553 125.152 207.125 125.152 208.478C125.152 209.413 124.437 209.952 123.612 210.216C124.503 210.513 125.262 211.184 125.262 212.119C125.262 213.428 123.953 214.132 122.457 214.132ZM122.457 209.71C122.908 209.633 123.843 209.369 123.843 208.676C123.843 208.06 123.238 207.697 122.457 207.697C121.654 207.697 121.06 208.06 121.06 208.676C121.06 209.369 122.006 209.633 122.457 209.71ZM122.457 212.988C123.271 212.988 123.964 212.592 123.964 211.954C123.964 211.195 122.908 210.854 122.457 210.799C121.995 210.854 120.939 211.195 120.939 211.954C120.939 212.592 121.621 212.988 122.457 212.988Z" fill="#333333"/>
<path d="M119.363 240H114.05V238.988C116.899 236.832 118.01 235.875 118.01 234.819C118.01 234.049 117.35 233.697 116.679 233.697C115.821 233.697 115.161 234.049 114.699 234.577L113.951 233.73C114.6 232.949 115.634 232.553 116.657 232.553C118.076 232.553 119.319 233.356 119.319 234.819C119.319 236.172 118.076 237.382 116.107 238.867H119.363V240ZM123.386 240.132C122.121 240.132 121.252 239.703 120.658 238.999L121.395 238.119C121.89 238.68 122.55 238.988 123.375 238.988C124.299 238.988 124.882 238.416 124.882 237.701C124.882 236.909 124.31 236.392 123.408 236.392C122.781 236.392 122.264 236.59 121.802 237.03L120.889 236.766V232.663H125.696V233.796H122.176V235.919C122.528 235.567 123.133 235.281 123.837 235.281C125.069 235.281 126.18 236.15 126.18 237.646C126.18 239.175 125.025 240.132 123.386 240.132Z" fill="#333333"/>
<path d="M151.817 110H150.53V103.796H148.308V102.663H154.039V103.796H151.817V110ZM159.849 110H158.694V106.656C158.694 105.831 158.265 105.578 157.616 105.578C157.033 105.578 156.527 105.93 156.252 106.293V110H155.097V102.663H156.252V105.413C156.604 104.995 157.297 104.555 158.133 104.555C159.277 104.555 159.849 105.149 159.849 106.238V110ZM162.504 110H161.349V104.687H162.504V105.468C162.9 104.962 163.538 104.566 164.231 104.566V105.71C164.132 105.688 164.011 105.677 163.868 105.677C163.384 105.677 162.735 106.007 162.504 106.381V110Z" fill="#333333"/>
<path d="M155.363 136H150.05V134.988C152.899 132.832 154.01 131.875 154.01 130.819C154.01 130.049 153.35 129.697 152.679 129.697C151.821 129.697 151.161 130.049 150.699 130.577L149.951 129.73C150.6 128.949 151.634 128.553 152.657 128.553C154.076 128.553 155.319 129.356 155.319 130.819C155.319 132.172 154.076 133.382 152.107 134.867H155.363V136ZM158.957 136.121C158.055 136.121 157.351 135.802 156.856 135.307L157.45 134.339C157.835 134.735 158.264 134.977 158.957 134.977C160.288 134.977 160.893 133.767 160.893 132.568C160.893 132.491 160.893 132.425 160.893 132.348C160.552 132.843 159.782 133.382 158.924 133.382C157.604 133.382 156.46 132.568 156.46 131.006C156.46 129.653 157.527 128.542 159.166 128.542C161.322 128.542 162.191 130.291 162.191 132.337C162.191 134.449 161.08 136.121 158.957 136.121ZM159.265 132.271C159.892 132.271 160.508 131.941 160.871 131.413C160.805 130.621 160.365 129.686 159.232 129.686C158.275 129.686 157.769 130.379 157.769 130.962C157.769 131.864 158.473 132.271 159.265 132.271Z" fill="#E6E6E6"/>
<path d="M152.888 162.132C150.831 162.132 149.951 160.185 149.951 158.337C149.951 156.489 150.831 154.553 152.888 154.553C154.945 154.553 155.825 156.489 155.825 158.337C155.825 160.185 154.945 162.132 152.888 162.132ZM152.888 160.988C154.087 160.988 154.516 159.734 154.516 158.337C154.516 156.94 154.087 155.697 152.888 155.697C151.689 155.697 151.26 156.94 151.26 158.337C151.26 159.734 151.689 160.988 152.888 160.988ZM159.622 162.132C158.357 162.132 157.488 161.703 156.894 160.999L157.631 160.119C158.126 160.68 158.786 160.988 159.611 160.988C160.535 160.988 161.118 160.416 161.118 159.701C161.118 158.909 160.546 158.392 159.644 158.392C159.017 158.392 158.5 158.59 158.038 159.03L157.125 158.766V154.663H161.932V155.796H158.412V157.919C158.764 157.567 159.369 157.281 160.073 157.281C161.305 157.281 162.416 158.15 162.416 159.646C162.416 161.175 161.261 162.132 159.622 162.132Z" fill="#333333"/>
<path d="M154.399 188H153.112V182.335L151.913 183.578L151.165 182.797L153.277 180.663H154.399V188ZM161.042 188H155.729V186.988C158.578 184.832 159.689 183.875 159.689 182.819C159.689 182.049 159.029 181.697 158.358 181.697C157.5 181.697 156.84 182.049 156.378 182.577L155.63 181.73C156.279 180.949 157.313 180.553 158.336 180.553C159.755 180.553 160.998 181.356 160.998 182.819C160.998 184.172 159.755 185.382 157.786 186.867H161.042V188Z" fill="#333333"/>
<path d="M154.399 214H153.112V208.335L151.913 209.578L151.165 208.797L153.277 206.663H154.399V214ZM158.094 214.121C157.192 214.121 156.488 213.802 155.993 213.307L156.587 212.339C156.972 212.735 157.401 212.977 158.094 212.977C159.425 212.977 160.03 211.767 160.03 210.568C160.03 210.491 160.03 210.425 160.03 210.348C159.689 210.843 158.919 211.382 158.061 211.382C156.741 211.382 155.597 210.568 155.597 209.006C155.597 207.653 156.664 206.542 158.303 206.542C160.459 206.542 161.328 208.291 161.328 210.337C161.328 212.449 160.217 214.121 158.094 214.121ZM158.402 210.271C159.029 210.271 159.645 209.941 160.008 209.413C159.942 208.621 159.502 207.686 158.369 207.686C157.412 207.686 156.906 208.379 156.906 208.962C156.906 209.864 157.61 210.271 158.402 210.271Z" fill="#333333"/>
<path d="M155.363 240H150.05V238.988C152.899 236.832 154.01 235.875 154.01 234.819C154.01 234.049 153.35 233.697 152.679 233.697C151.821 233.697 151.161 234.049 150.699 234.577L149.951 233.73C150.6 232.949 151.634 232.553 152.657 232.553C154.076 232.553 155.319 233.356 155.319 234.819C155.319 236.172 154.076 237.382 152.107 238.867H155.363V240ZM159.518 240.132C157.362 240.132 156.493 238.383 156.493 236.348C156.493 234.225 157.604 232.553 159.727 232.553C160.64 232.553 161.344 232.883 161.839 233.367L161.234 234.346C160.849 233.939 160.431 233.697 159.727 233.697C158.506 233.697 157.791 234.83 157.791 236.117C157.791 236.194 157.791 236.26 157.802 236.326C158.132 235.831 158.902 235.303 159.771 235.303C161.091 235.303 162.224 236.106 162.224 237.668C162.224 239.032 161.157 240.132 159.518 240.132ZM159.452 238.988C160.42 238.988 160.926 238.306 160.926 237.712C160.926 236.81 160.222 236.403 159.419 236.403C158.792 236.403 158.187 236.744 157.813 237.272C157.89 238.064 158.319 238.988 159.452 238.988Z" fill="#333333"/>
<path d="M183.568 110H182.281V102.663H187.308V103.796H183.568V105.699H187.231V106.832H183.568V110ZM189.58 110H188.425V104.687H189.58V105.468C189.976 104.962 190.614 104.566 191.307 104.566V105.71C191.208 105.688 191.087 105.677 190.944 105.677C190.46 105.677 189.811 106.007 189.58 106.381V110ZM192.81 104.038C192.425 104.038 192.095 103.719 192.095 103.323C192.095 102.927 192.425 102.608 192.81 102.608C193.206 102.608 193.525 102.927 193.525 103.323C193.525 103.719 193.206 104.038 192.81 104.038ZM193.393 110H192.238V104.687H193.393V110Z" fill="#333333"/>
<path d="M184.036 136.132C182.727 136.132 181.759 135.604 181.264 134.944L181.957 134.097C182.43 134.647 183.211 134.988 183.992 134.988C184.96 134.988 185.521 134.548 185.521 133.866C185.521 133.14 184.938 132.832 183.893 132.832C183.585 132.832 183.156 132.832 183.046 132.843V131.688C183.178 131.699 183.607 131.699 183.893 131.699C184.751 131.699 185.4 131.402 185.4 130.731C185.4 130.049 184.74 129.697 183.915 129.697C183.167 129.697 182.551 129.983 182.023 130.511L181.363 129.708C181.924 129.048 182.815 128.553 184.036 128.553C185.62 128.553 186.687 129.301 186.687 130.533C186.687 131.512 185.851 132.084 185.092 132.216C185.807 132.282 186.797 132.865 186.797 133.998C186.797 135.241 185.73 136.132 184.036 136.132ZM190.704 136.132C188.647 136.132 187.767 134.185 187.767 132.337C187.767 130.489 188.647 128.553 190.704 128.553C192.761 128.553 193.641 130.489 193.641 132.337C193.641 134.185 192.761 136.132 190.704 136.132ZM190.704 134.988C191.903 134.988 192.332 133.734 192.332 132.337C192.332 130.94 191.903 129.697 190.704 129.697C189.505 129.697 189.076 130.94 189.076 132.337C189.076 133.734 189.505 134.988 190.704 134.988Z" fill="#E6E6E6"/>
<path d="M184.388 162.132C182.331 162.132 181.451 160.185 181.451 158.337C181.451 156.489 182.331 154.553 184.388 154.553C186.445 154.553 187.325 156.489 187.325 158.337C187.325 160.185 186.445 162.132 184.388 162.132ZM184.388 160.988C185.587 160.988 186.016 159.734 186.016 158.337C186.016 156.94 185.587 155.697 184.388 155.697C183.189 155.697 182.76 156.94 182.76 158.337C182.76 159.734 183.189 160.988 184.388 160.988ZM191.254 162.132C189.098 162.132 188.229 160.383 188.229 158.348C188.229 156.225 189.34 154.553 191.463 154.553C192.376 154.553 193.08 154.883 193.575 155.367L192.97 156.346C192.585 155.939 192.167 155.697 191.463 155.697C190.242 155.697 189.527 156.83 189.527 158.117C189.527 158.194 189.527 158.26 189.538 158.326C189.868 157.831 190.638 157.303 191.507 157.303C192.827 157.303 193.96 158.106 193.96 159.668C193.96 161.032 192.893 162.132 191.254 162.132ZM191.188 160.988C192.156 160.988 192.662 160.306 192.662 159.712C192.662 158.81 191.958 158.403 191.155 158.403C190.528 158.403 189.923 158.744 189.549 159.272C189.626 160.064 190.055 160.988 191.188 160.988Z" fill="#333333"/>
<path d="M185.899 188H184.612V182.335L183.413 183.578L182.665 182.797L184.777 180.663H185.899V188ZM189.715 188.132C188.406 188.132 187.438 187.604 186.943 186.944L187.636 186.097C188.109 186.647 188.89 186.988 189.671 186.988C190.639 186.988 191.2 186.548 191.2 185.866C191.2 185.14 190.617 184.832 189.572 184.832C189.264 184.832 188.835 184.832 188.725 184.843V183.688C188.857 183.699 189.286 183.699 189.572 183.699C190.43 183.699 191.079 183.402 191.079 182.731C191.079 182.049 190.419 181.697 189.594 181.697C188.846 181.697 188.23 181.983 187.702 182.511L187.042 181.708C187.603 181.048 188.494 180.553 189.715 180.553C191.299 180.553 192.366 181.301 192.366 182.533C192.366 183.512 191.53 184.084 190.771 184.216C191.486 184.282 192.476 184.865 192.476 185.998C192.476 187.241 191.409 188.132 189.715 188.132Z" fill="#333333"/>
<path d="M186.863 214H181.55V212.988C184.399 210.832 185.51 209.875 185.51 208.819C185.51 208.049 184.85 207.697 184.179 207.697C183.321 207.697 182.661 208.049 182.199 208.577L181.451 207.73C182.1 206.949 183.134 206.553 184.157 206.553C185.576 206.553 186.819 207.356 186.819 208.819C186.819 210.172 185.576 211.382 183.607 212.867H186.863V214ZM190.93 214.132C188.873 214.132 187.993 212.185 187.993 210.337C187.993 208.489 188.873 206.553 190.93 206.553C192.987 206.553 193.867 208.489 193.867 210.337C193.867 212.185 192.987 214.132 190.93 214.132ZM190.93 212.988C192.129 212.988 192.558 211.734 192.558 210.337C192.558 208.94 192.129 207.697 190.93 207.697C189.731 207.697 189.302 208.94 189.302 210.337C189.302 211.734 189.731 212.988 190.93 212.988Z" fill="#333333"/>
<path d="M187.363 240H182.05V238.988C184.899 236.832 186.01 235.875 186.01 234.819C186.01 234.049 185.35 233.697 184.679 233.697C183.821 233.697 183.161 234.049 182.699 234.577L181.951 233.73C182.6 232.949 183.634 232.553 184.657 232.553C186.076 232.553 187.319 233.356 187.319 234.819C187.319 236.172 186.076 237.382 184.107 238.867H187.363V240ZM190.781 240H189.373L192.145 233.796H188.339V232.663H193.63V233.554L190.781 240Z" fill="#333333"/>
<path d="M214.289 110.132C212.936 110.132 211.957 109.659 211.308 108.966L212.023 107.976C212.529 108.515 213.321 108.988 214.344 108.988C215.4 108.988 215.818 108.471 215.818 107.987C215.818 106.447 211.539 107.404 211.539 104.698C211.539 103.488 212.606 102.553 214.212 102.553C215.356 102.553 216.28 102.916 216.962 103.576L216.225 104.533C215.653 103.961 214.872 103.697 214.102 103.697C213.343 103.697 212.859 104.06 212.859 104.61C212.859 105.974 217.127 105.127 217.127 107.866C217.127 109.087 216.269 110.132 214.289 110.132ZM222.679 110H221.524V109.428C221.128 109.879 220.512 110.132 219.808 110.132C218.939 110.132 217.96 109.549 217.96 108.372C217.96 107.151 218.939 106.645 219.808 106.645C220.523 106.645 221.139 106.876 221.524 107.327V106.535C221.524 105.919 221.018 105.545 220.281 105.545C219.687 105.545 219.17 105.765 218.708 106.216L218.235 105.413C218.851 104.83 219.621 104.555 220.468 104.555C221.645 104.555 222.679 105.05 222.679 106.48V110ZM220.259 109.34C220.765 109.34 221.26 109.153 221.524 108.79V107.987C221.26 107.624 220.765 107.437 220.259 107.437C219.61 107.437 219.126 107.811 219.126 108.394C219.126 108.966 219.61 109.34 220.259 109.34ZM225.772 110.132C224.881 110.132 224.408 109.648 224.408 108.768V105.699H223.528V104.687H224.408V103.235H225.563V104.687H226.641V105.699H225.563V108.482C225.563 108.845 225.739 109.109 226.069 109.109C226.289 109.109 226.498 109.021 226.586 108.922L226.861 109.791C226.652 109.989 226.311 110.132 225.772 110.132Z" fill="#333333"/>
<path d="M216.536 136.132C215.227 136.132 214.259 135.604 213.764 134.944L214.457 134.097C214.93 134.647 215.711 134.988 216.492 134.988C217.46 134.988 218.021 134.548 218.021 133.866C218.021 133.14 217.438 132.832 216.393 132.832C216.085 132.832 215.656 132.832 215.546 132.843V131.688C215.678 131.699 216.107 131.699 216.393 131.699C217.251 131.699 217.9 131.402 217.9 130.731C217.9 130.049 217.24 129.697 216.415 129.697C215.667 129.697 215.051 129.983 214.523 130.511L213.863 129.708C214.424 129.048 215.315 128.553 216.536 128.553C218.12 128.553 219.187 129.301 219.187 130.533C219.187 131.512 218.351 132.084 217.592 132.216C218.307 132.282 219.297 132.865 219.297 133.998C219.297 135.241 218.23 136.132 216.536 136.132ZM223.215 136H221.928V130.335L220.729 131.578L219.981 130.797L222.093 128.663H223.215V136Z" fill="#E6E6E6"/>
<path d="M215.888 162.132C213.831 162.132 212.951 160.185 212.951 158.337C212.951 156.489 213.831 154.553 215.888 154.553C217.945 154.553 218.825 156.489 218.825 158.337C218.825 160.185 217.945 162.132 215.888 162.132ZM215.888 160.988C217.087 160.988 217.516 159.734 217.516 158.337C217.516 156.94 217.087 155.697 215.888 155.697C214.689 155.697 214.26 156.94 214.26 158.337C214.26 159.734 214.689 160.988 215.888 160.988ZM222.017 162H220.609L223.381 155.796H219.575V154.663H224.866V155.554L222.017 162Z" fill="#333333"/>
<path d="M216.899 188H215.612V182.335L214.413 183.578L213.665 182.797L215.777 180.663H216.899V188ZM222.772 188H221.485V186.339H217.987V185.305L221.001 180.663H222.772V185.206H223.751V186.339H222.772V188ZM221.485 185.206V181.818L219.252 185.206H221.485Z" fill="#333333"/>
<path d="M219.363 214H214.05V212.988C216.899 210.832 218.01 209.875 218.01 208.819C218.01 208.049 217.35 207.697 216.679 207.697C215.821 207.697 215.161 208.049 214.699 208.577L213.951 207.73C214.6 206.949 215.634 206.553 216.657 206.553C218.076 206.553 219.319 207.356 219.319 208.819C219.319 210.172 218.076 211.382 216.107 212.867H219.363V214ZM223.441 214H222.154V208.335L220.955 209.578L220.207 208.797L222.319 206.663H223.441V214Z" fill="#333333"/>
<path d="M217.863 240H212.55V238.988C215.399 236.832 216.51 235.875 216.51 234.819C216.51 234.049 215.85 233.697 215.179 233.697C214.321 233.697 213.661 234.049 213.199 234.577L212.451 233.73C213.1 232.949 214.134 232.553 215.157 232.553C216.576 232.553 217.819 233.356 217.819 234.819C217.819 236.172 216.576 237.382 214.607 238.867H217.863V240ZM221.82 240.132C220.313 240.132 219.004 239.439 219.004 238.119C219.004 237.184 219.763 236.513 220.654 236.216C219.829 235.952 219.125 235.413 219.125 234.478C219.125 233.125 220.511 232.553 221.82 232.553C223.107 232.553 224.515 233.125 224.515 234.478C224.515 235.413 223.8 235.952 222.975 236.216C223.866 236.513 224.625 237.184 224.625 238.119C224.625 239.428 223.316 240.132 221.82 240.132ZM221.82 235.71C222.271 235.633 223.206 235.369 223.206 234.676C223.206 234.06 222.601 233.697 221.82 233.697C221.017 233.697 220.423 234.06 220.423 234.676C220.423 235.369 221.369 235.633 221.82 235.71ZM221.82 238.988C222.634 238.988 223.327 238.592 223.327 237.954C223.327 237.195 222.271 236.854 221.82 236.799C221.358 236.854 220.302 237.195 220.302 237.954C220.302 238.592 220.984 238.988 221.82 238.988Z" fill="#333333"/>
<circle cx="253" cy="158" r="11" fill="#12100E"/>
<path d="M246.289 110.132C244.936 110.132 243.957 109.659 243.308 108.966L244.023 107.976C244.529 108.515 245.321 108.988 246.344 108.988C247.4 108.988 247.818 108.471 247.818 107.987C247.818 106.447 243.539 107.404 243.539 104.698C243.539 103.488 244.606 102.553 246.212 102.553C247.356 102.553 248.28 102.916 248.962 103.576L248.225 104.533C247.653 103.961 246.872 103.697 246.102 103.697C245.343 103.697 244.859 104.06 244.859 104.61C244.859 105.974 249.127 105.127 249.127 107.866C249.127 109.087 248.269 110.132 246.289 110.132ZM255.02 110H253.865V109.296C253.48 109.725 252.82 110.132 251.984 110.132C250.84 110.132 250.279 109.538 250.279 108.449V104.687H251.434V108.031C251.434 108.856 251.852 109.109 252.501 109.109C253.084 109.109 253.59 108.779 253.865 108.416V104.687H255.02V110ZM261.261 110H260.106V106.678C260.106 105.853 259.688 105.578 259.039 105.578C258.445 105.578 257.939 105.93 257.675 106.293V110H256.52V104.687H257.675V105.413C258.027 104.995 258.709 104.555 259.545 104.555C260.689 104.555 261.261 105.171 261.261 106.26V110Z" fill="#333333"/>
<path d="M250.888 136.132C248.831 136.132 247.951 134.185 247.951 132.337C247.951 130.489 248.831 128.553 250.888 128.553C252.945 128.553 253.825 130.489 253.825 132.337C253.825 134.185 252.945 136.132 250.888 136.132ZM250.888 134.988C252.087 134.988 252.516 133.734 252.516 132.337C252.516 130.94 252.087 129.697 250.888 129.697C249.689 129.697 249.26 130.94 249.26 132.337C249.26 133.734 249.689 134.988 250.888 134.988ZM257.677 136H256.39V130.335L255.191 131.578L254.443 130.797L256.555 128.663H257.677V136Z" fill="#333333"/>
<path d="M249.388 162.132C247.331 162.132 246.451 160.185 246.451 158.337C246.451 156.489 247.331 154.553 249.388 154.553C251.445 154.553 252.325 156.489 252.325 158.337C252.325 160.185 251.445 162.132 249.388 162.132ZM249.388 160.988C250.587 160.988 251.016 159.734 251.016 158.337C251.016 156.94 250.587 155.697 249.388 155.697C248.189 155.697 247.76 156.94 247.76 158.337C247.76 159.734 248.189 160.988 249.388 160.988ZM256.056 162.132C254.549 162.132 253.24 161.439 253.24 160.119C253.24 159.184 253.999 158.513 254.89 158.216C254.065 157.952 253.361 157.413 253.361 156.478C253.361 155.125 254.747 154.553 256.056 154.553C257.343 154.553 258.751 155.125 258.751 156.478C258.751 157.413 258.036 157.952 257.211 158.216C258.102 158.513 258.861 159.184 258.861 160.119C258.861 161.428 257.552 162.132 256.056 162.132ZM256.056 157.71C256.507 157.633 257.442 157.369 257.442 156.676C257.442 156.06 256.837 155.697 256.056 155.697C255.253 155.697 254.659 156.06 254.659 156.676C254.659 157.369 255.605 157.633 256.056 157.71ZM256.056 160.988C256.87 160.988 257.563 160.592 257.563 159.954C257.563 159.195 256.507 158.854 256.056 158.799C255.594 158.854 254.538 159.195 254.538 159.954C254.538 160.592 255.22 160.988 256.056 160.988Z" fill="#FCFFFC"/>
<path d="M250.899 188H249.612V182.335L248.413 183.578L247.665 182.797L249.777 180.663H250.899V188ZM255.023 188.132C253.758 188.132 252.889 187.703 252.295 186.999L253.032 186.119C253.527 186.68 254.187 186.988 255.012 186.988C255.936 186.988 256.519 186.416 256.519 185.701C256.519 184.909 255.947 184.392 255.045 184.392C254.418 184.392 253.901 184.59 253.439 185.03L252.526 184.766V180.663H257.333V181.796H253.813V183.919C254.165 183.567 254.77 183.281 255.474 183.281C256.706 183.281 257.817 184.15 257.817 185.646C257.817 187.175 256.662 188.132 255.023 188.132Z" fill="#333333"/>
<path d="M251.863 214H246.55V212.988C249.399 210.832 250.51 209.875 250.51 208.819C250.51 208.049 249.85 207.697 249.179 207.697C248.321 207.697 247.661 208.049 247.199 208.577L246.451 207.73C247.1 206.949 248.134 206.553 249.157 206.553C250.576 206.553 251.819 207.356 251.819 208.819C251.819 210.172 250.576 211.382 248.607 212.867H251.863V214ZM258.405 214H253.092V212.988C255.941 210.832 257.052 209.875 257.052 208.819C257.052 208.049 256.392 207.697 255.721 207.697C254.863 207.697 254.203 208.049 253.741 208.577L252.993 207.73C253.642 206.949 254.676 206.553 255.699 206.553C257.118 206.553 258.361 207.356 258.361 208.819C258.361 210.172 257.118 211.382 255.149 212.867H258.405V214Z" fill="#333333"/>
<path d="M251.863 240H246.55V238.988C249.399 236.832 250.51 235.875 250.51 234.819C250.51 234.049 249.85 233.697 249.179 233.697C248.321 233.697 247.661 234.049 247.199 234.577L246.451 233.73C247.1 232.949 248.134 232.553 249.157 232.553C250.576 232.553 251.819 233.356 251.819 234.819C251.819 236.172 250.576 237.382 248.607 238.867H251.863V240ZM255.82 240.132C254.313 240.132 253.004 239.439 253.004 238.119C253.004 237.184 253.763 236.513 254.654 236.216C253.829 235.952 253.125 235.413 253.125 234.478C253.125 233.125 254.511 232.553 255.82 232.553C257.107 232.553 258.515 233.125 258.515 234.478C258.515 235.413 257.8 235.952 256.975 236.216C257.866 236.513 258.625 237.184 258.625 238.119C258.625 239.428 257.316 240.132 255.82 240.132ZM255.82 235.71C256.271 235.633 257.206 235.369 257.206 234.676C257.206 234.06 256.601 233.697 255.82 233.697C255.017 233.697 254.423 234.06 254.423 234.676C254.423 235.369 255.369 235.633 255.82 235.71ZM255.82 238.988C256.634 238.988 257.327 238.592 257.327 237.954C257.327 237.195 256.271 236.854 255.82 236.799C255.358 236.854 254.302 237.195 254.302 237.954C254.302 238.592 254.984 238.988 255.82 238.988Z" fill="#333333"/>
</svg>
