<svg width="32" height="33" viewBox="0 0 32 33" fill="none" xmlns="http://www.w3.org/2000/svg">
<g id="pytorch-icon 1" clip-path="url(#clip0_717_2309)">
<g id="Group">
<path id="Vector" d="M25.4104 10.2366L23.0871 12.5599C26.9592 16.432 26.9592 22.7379 23.0871 26.61C19.215 30.4821 12.9091 30.4821 9.03699 26.61C5.1649 22.7379 5.1649 16.432 9.03699 12.5599L15.2323 6.36456L16.0067 5.47951V0.833008L6.60311 10.2366C5.36749 11.4598 4.38662 12.9158 3.71721 14.5204C3.0478 16.125 2.70312 17.8463 2.70312 19.585C2.70312 21.3236 3.0478 23.045 3.71721 24.6496C4.38662 26.2542 5.36749 27.7101 6.60311 28.9333C7.82626 30.1689 9.28223 31.1498 10.8868 31.8192C12.4914 32.4886 14.2128 32.8333 15.9514 32.8333C17.6901 32.8333 19.4114 32.4886 21.016 31.8192C22.6206 31.1498 24.0766 30.1689 25.2997 28.9333C30.61 23.7336 30.61 15.3257 25.4104 10.2366Z" fill="#EE4C2C"/>
<path id="Vector_2" d="M20.7637 9.57291C21.7413 9.57291 22.5338 8.78041 22.5338 7.80281C22.5338 6.82521 21.7413 6.03271 20.7637 6.03271C19.7861 6.03271 18.9937 6.82521 18.9937 7.80281C18.9937 8.78041 19.7861 9.57291 20.7637 9.57291Z" fill="#EE4C2C"/>
</g>
</g>
<defs>
<clipPath id="clip0_717_2309">
<rect width="32" height="32" fill="white" transform="translate(0 0.833008)"/>
</clipPath>
</defs>
</svg>
