<svg width="32" height="33" viewBox="0 0 32 33" fill="none" xmlns="http://www.w3.org/2000/svg">
<g id="tensorflow-icon 1" clip-path="url(#clip0_717_2304)">
<path id="Vector" d="M13.8667 18.0595L18.1867 15.553L22.4532 18.0595L18.1867 20.513L13.8667 18.113V18.0595ZM0.906738 10.6465L18.1867 0.833008L31.0402 8.13951L26.7737 15.553L18.1872 10.6465L5.22724 18.0065L0.906738 10.6465Z" fill="#F6BD3A"/>
<path id="Vector_2" d="M13.8666 27.8732V22.9667L18.1331 20.5132L22.4531 18.0597V22.9662L18.1866 25.4197V30.3262L13.8666 32.8332V27.8732ZM13.8666 18.0597L9.54656 15.6062L5.22656 18.0062V13.0997L18.1866 5.73975V15.5532L13.8666 18.0597ZM26.7201 13.0997V10.6462L31.0401 8.13975L31.0936 13.0462L26.7736 15.5527L26.7201 13.0997Z" fill="#EB8C23"/>
<path id="Vector_3" d="M9.54674 30.2197V15.6067L13.8132 13.2067L13.8667 18.0602L18.1867 20.4602V25.4202L13.8667 23.1267V32.8332L9.54674 30.2197ZM3.04024 16.7267L0.906738 15.4467V10.6467L5.22674 13.1002V18.0067L3.04024 16.7267ZM18.1867 10.6467V5.73975L26.7202 10.6462L26.7737 15.5527L18.1872 10.6462L18.1867 10.6467Z" fill="#E35A2B"/>
</g>
<defs>
<clipPath id="clip0_717_2304">
<rect width="32" height="32" fill="white" transform="translate(0 0.833008)"/>
</clipPath>
</defs>
</svg>
